<svg width="302" height="160" viewBox="0 0 302 160" fill="none" xmlns="http://www.w3.org/2000/svg">
<g clip-path="url(#clip0_6_544)">
<mask id="mask0_6_544" style="mask-type:alpha" maskUnits="userSpaceOnUse" x="0" y="17" width="302" height="125">
<rect y="17.0518" width="301.481" height="124.058" fill="url(#paint0_linear_6_544)"/>
</mask>
<g mask="url(#mask0_6_544)">
<path d="M263.695 33.345L246.655 27.9651L176.477 28.1726L164.329 24.0481L154.051 28.0837L110.128 27.97L92.7243 20.4277H67.4187L63.5044 27.9675H41.449L0 90.3523L46.1399 139.575H255.44L301.58 90.3523L263.692 33.3425L263.695 33.345ZM254.376 137.344H47.2041L2.94421 90.125L42.759 30.1991H64.9818L68.8934 22.6592H92.2092L109.608 30.1991L154.519 30.3152L164.389 26.4378L176.067 30.4042L246.273 30.1966L262.142 35.2059L298.636 90.12L254.376 137.339V137.344Z" fill="url(#paint1_linear_6_544)"/>
</g>
<path d="M298.638 90.1247L254.376 137.341H47.204L2.94415 90.1247L42.759 30.1988H64.9817L68.8934 22.659H92.2091L109.61 30.1988L154.519 30.3175L164.389 26.44L176.067 30.4064L246.273 30.1988L262.142 35.2106L298.638 90.1247Z" fill="url(#paint2_linear_6_544)"/>
<path d="M298.633 90.1247L262.144 35.2106L246.27 30.2013L176.069 30.4039L164.391 26.4375L154.515 30.315L109.607 30.2013L92.2085 22.6614H68.8954L64.9837 30.2013H42.7636L2.94614 90.1247H29.5721L49.6404 104.223H82.1417L87.0078 90.1247H108.09L112.936 70.1766H117.744L124.239 67.5026L122.877 81.0403L140.835 90.1247H298.633Z" fill="#4A357D"/>
<path d="M17.0455 82.7579H39.7285L43.6271 75.6901H33.5681L40.6855 63.8972L52.3473 59.8838L56.0314 53.2114L44.9318 56.8614L50.8385 47.0727L47.3583 42.103H53.8403H62.1604L64.6627 37.5682H47.0733L17.0455 82.7579Z" fill="white"/>
<path d="M73.7568 30.0257L60.589 55.4205L76.5546 64.3764L82.8196 67.4358L73.3385 72.3017L66.6473 88.7826H55.9086L67.3925 63.6918L58.8135 58.8432L42.5942 90.1171L52.2139 96.8563H76.4866L88.5119 62.0015L72.0782 53.4533L80.9239 34.128H88.8309L94.212 36.2657L86.6005 39.6241L81.405 52.4278L90.2611 56.9255L98.3564 33.4608L90.4965 30.0257H73.7568Z" fill="white"/>
<path d="M103.358 37.5678L89.6257 82.7575H101.881L106.729 62.8094H116.121L127.788 58.0077L129.95 41.4156L120.945 37.5678H103.356H103.358ZM119.107 47.2033L117.224 57.0513H108.13L111.762 42.1001H120.082L126.222 44.4602L119.107 47.2008V47.2033Z" fill="white"/>
<path d="M135.081 37.5678L131.127 76.8585L142.789 82.7575H165.472L162.457 41.4156L152.673 37.5678H135.083H135.081ZM152.837 51.4712L153.13 75.6872H143.071L144.408 42.1001H152.728L159.121 44.4602L152.84 51.4712H152.837Z" fill="white"/>
<path d="M169.164 41.4329L173.91 82.7575H186.165L182.659 62.8094H192.051L196.59 82.7575H208.848L203.349 63.6916L196.135 60.8052L201.71 58.0077L195.813 37.5678H178.224L169.164 41.4329V41.4329ZM190.743 57.0513H181.649L179.929 47.2552L172.832 44.4627L179.022 42.1026H187.342L190.743 57.0538V57.0513Z" fill="white"/>
<path d="M200.36 42.1026H208.552L223.171 82.7575H235.429L220.4 47.013L211.816 42.0482H226.375L224.267 37.5678H198.962L200.36 42.1026Z" fill="white"/>
<path d="M267.371 56.9253L257.03 41.3637L245.002 37.5678H227.413L236.177 55.4203L261.182 64.3762L268.012 75.6896H257.95L251.332 63.6916L237.856 58.843L246.699 76.8585L261.851 82.7575H284.534L270.742 62.0013L245.682 53.4531L242.17 47.0871L232.943 42.1026H247.74L253.971 52.4276L267.371 56.9253Z" fill="white"/>
<path d="M164.802 32.1531C163.518 33.3369 162.064 34.4341 160.466 35.43C162.213 36.4358 163.873 37.5825 165.424 38.8503C166.739 37.5825 168.188 36.4358 169.746 35.43C167.963 34.4341 166.305 33.3369 164.802 32.1531Z" fill="#E2D45C"/>
<path d="M30.8675 77.1725L38.228 64.9743C35.4982 65.2684 32.792 65.5699 30.1092 65.8837L19.8829 81.2748H38.7771L41.0389 77.1725H30.8675V77.1725Z" fill="url(#paint3_linear_6_544)"/>
<path d="M83.641 61.1608C80.7178 61.3412 77.8128 61.534 74.9261 61.7391L77.316 63.0785L85.1681 66.9115L86.6166 62.7078L83.641 61.1608V61.1608ZM74.594 73.3417L67.7277 90.265H53.5217L65.4084 64.2969L62.5479 62.6807C61.1568 62.7943 59.7684 62.9105 58.3878 63.0316L44.5793 89.6595L52.7321 95.3731H75.3471L84.7445 68.1348L74.594 73.3417V73.3417Z" fill="url(#paint4_linear_6_544)"/>
<path d="M120.314 59.4681L115.798 61.3265H105.483L100.635 81.2746H91.7108L98.0672 60.3553C105.383 59.992 112.801 59.6954 120.314 59.4681Z" fill="url(#paint5_linear_6_544)"/>
<path d="M163.791 81.2748H143.184L132.788 76.0184L134.49 59.1174C137.039 59.0679 139.596 59.0284 142.164 58.9963L141.442 77.1725H154.718L154.498 58.8999C155.672 58.8974 156.849 58.895 158.028 58.895C159.408 58.895 160.786 58.8974 162.159 58.9024L163.791 81.2748V81.2748Z" fill="url(#paint6_linear_6_544)"/>
<path d="M206.796 81.2746H197.858L193.319 61.3265H180.808L184.314 81.2746H175.317L172.757 58.9813C180.413 59.0702 187.988 59.2309 195.471 59.4582L192.488 60.9558L202.037 64.7764L206.796 81.2746V81.2746Z" fill="url(#paint7_linear_6_544)"/>
<path d="M224.464 60.6938C221.907 60.5529 219.337 60.4195 216.753 60.2959L224.297 81.2745H233.119L224.464 60.6938Z" fill="url(#paint8_linear_6_544)"/>
<path d="M270.356 64.2058C267.733 63.9463 265.092 63.6943 262.43 63.4521L270.714 77.1726H257L250.217 64.878L241.58 61.7692C241.387 61.7543 241.196 61.742 241.003 61.7296L247.866 75.7096L262.161 81.2749H281.699L270.356 64.2058V64.2058Z" fill="url(#paint9_linear_6_544)"/>
<path fill-rule="evenodd" clip-rule="evenodd" d="M124.98 116.011V112.962L116.067 116.095H116.048V119.224H116.067L124.98 122.358V119.303L120.412 117.652L124.98 116.011V116.011Z" fill="#996DFF"/>
<path fill-rule="evenodd" clip-rule="evenodd" d="M176.612 122.2V119.15L181.177 117.509L176.612 115.868V112.819L185.512 115.95H185.533V119.081H185.512L176.612 122.197V122.2ZM172.789 108.511L167.554 124.392H170.663L175.898 108.511H172.789Z" fill="#996DFF"/>
<path fill-rule="evenodd" clip-rule="evenodd" d="M138.078 112.386C138.962 113.305 139.427 114.516 139.372 115.757V122.521H136.263V116.377C136.3 115.693 136.067 115.02 135.615 114.487C135.184 114.012 134.546 113.75 133.884 113.777C131.939 113.777 130.963 115.053 130.963 117.605V122.523H127.854V111.417H130.963V112.421C131.949 111.514 133.288 111.032 134.663 111.086C135.944 111.034 137.189 111.509 138.075 112.386H138.078Z" fill="white"/>
<path fill-rule="evenodd" clip-rule="evenodd" d="M143.328 106.799V122.679H146.437V106.799H143.328Z" fill="white"/>
<path fill-rule="evenodd" clip-rule="evenodd" d="M164.003 122.098H161.409L158.867 115.557L156.302 122.098H153.714L149.358 110.972H152.678L155.126 117.625L157.649 110.972H160.073L162.596 117.647L165.043 110.972H168.364L164.003 122.098V122.098Z" fill="white"/>
<path d="M12.6741 25.9287C16.1935 17.8946 23.3004 11.5632 33.7908 7.11245C43.8419 2.84704 56.5784 0.474619 71.6419 0.0643877C102.522 -0.778316 139.801 6.68987 176.603 21.0998C179.249 22.1353 181.872 23.198 184.466 24.2878L180.797 24.2977C179.223 23.6527 177.636 23.0176 176.036 22.3923C100.634 -7.12454 27.9625 -5.29827 14.0416 26.465C10.0097 35.663 11.3406 46.376 17.0982 57.6747C31.2153 85.3974 71.9714 116.637 125.542 137.608C130.725 139.637 135.913 141.525 141.092 143.272C172.519 153.879 203.559 159.254 229.894 158.535C244.765 158.129 257.308 155.799 267.181 151.61C277.318 147.31 284.166 141.228 287.537 133.535C290.578 126.593 290.567 118.789 287.903 110.52L289.04 109.307C292.162 118.421 292.12 126.742 288.907 134.072C285.385 142.106 278.28 148.437 267.787 152.888C257.736 157.153 245.003 159.526 229.939 159.936C228.365 159.978 226.775 160 225.17 160C198.622 160 167.786 154.151 136.762 143.272C132.832 141.896 128.902 140.438 124.975 138.9C88.1724 124.493 56.2254 104.864 35.0197 83.628C26.6813 75.2775 20.3641 67.0383 16.1778 59.0586C15.1686 57.1384 14.2848 55.2355 13.5265 53.3499C9.43963 43.1905 9.15201 33.9653 12.6741 25.9287V25.9287Z" fill="url(#paint10_linear_6_544)"/>
<path d="M12.6741 25.9287C16.1935 17.8946 23.3004 11.5632 33.7908 7.11245C43.8419 2.84704 56.5784 0.474619 71.6419 0.0643877C102.522 -0.778316 139.801 6.68987 176.603 21.0998C179.249 22.1353 181.872 23.198 184.466 24.2878L180.797 24.2977C179.223 23.6527 177.636 23.0176 176.036 22.3923C100.634 -7.12454 27.9625 -5.29827 14.0416 26.465C10.0097 35.663 11.3406 46.376 17.0982 57.6747C31.2153 85.3974 71.9714 116.637 125.542 137.608C130.725 139.637 135.913 141.525 141.092 143.272C172.519 153.879 203.559 159.254 229.894 158.535C244.765 158.129 257.308 155.799 267.181 151.61C277.318 147.31 284.166 141.228 287.537 133.535C290.578 126.593 290.567 118.789 287.903 110.52L289.04 109.307C292.162 118.421 292.12 126.742 288.907 134.072C285.385 142.106 278.28 148.437 267.787 152.888C257.736 157.153 245.003 159.526 229.939 159.936C228.365 159.978 226.775 160 225.17 160C198.622 160 167.786 154.151 136.762 143.272C132.832 141.896 128.902 140.438 124.975 138.9C88.1724 124.493 56.2254 104.864 35.0197 83.628C26.6813 75.2775 20.3641 67.0383 16.1778 59.0586C15.1686 57.1384 14.2848 55.2355 13.5265 53.3499C9.43963 43.1905 9.15201 33.9653 12.6741 25.9287V25.9287Z" fill="url(#paint11_radial_6_544)"/>
<path d="M12.6741 25.9287C16.1935 17.8946 23.3004 11.5632 33.7908 7.11245C43.8419 2.84704 56.5784 0.474619 71.6419 0.0643877C102.522 -0.778316 139.801 6.68987 176.603 21.0998C179.249 22.1353 181.872 23.198 184.466 24.2878L180.797 24.2977C179.223 23.6527 177.636 23.0176 176.036 22.3923C100.634 -7.12454 27.9625 -5.29827 14.0416 26.465C10.0097 35.663 11.3406 46.376 17.0982 57.6747C31.2153 85.3974 71.9714 116.637 125.542 137.608C130.725 139.637 135.913 141.525 141.092 143.272C172.519 153.879 203.559 159.254 229.894 158.535C244.765 158.129 257.308 155.799 267.181 151.61C277.318 147.31 284.166 141.228 287.537 133.535C290.578 126.593 290.567 118.789 287.903 110.52L289.04 109.307C292.162 118.421 292.12 126.742 288.907 134.072C285.385 142.106 278.28 148.437 267.787 152.888C257.736 157.153 245.003 159.526 229.939 159.936C228.365 159.978 226.775 160 225.17 160C198.622 160 167.786 154.151 136.762 143.272C132.832 141.896 128.902 140.438 124.975 138.9C88.1724 124.493 56.2254 104.864 35.0197 83.628C26.6813 75.2775 20.3641 67.0383 16.1778 59.0586C15.1686 57.1384 14.2848 55.2355 13.5265 53.3499C9.43963 43.1905 9.15201 33.9653 12.6741 25.9287V25.9287Z" fill="url(#paint12_radial_6_544)"/>
<path d="M12.6741 25.9287C16.1935 17.8946 23.3004 11.5632 33.7908 7.11245C43.8419 2.84704 56.5784 0.474619 71.6419 0.0643877C102.522 -0.778316 139.801 6.68987 176.603 21.0998C179.249 22.1353 181.872 23.198 184.466 24.2878L180.797 24.2977C179.223 23.6527 177.636 23.0176 176.036 22.3923C100.634 -7.12454 27.9625 -5.29827 14.0416 26.465C10.0097 35.663 11.3406 46.376 17.0982 57.6747C31.2153 85.3974 71.9714 116.637 125.542 137.608C130.725 139.637 135.913 141.525 141.092 143.272C172.519 153.879 203.559 159.254 229.894 158.535C244.765 158.129 257.308 155.799 267.181 151.61C277.318 147.31 284.166 141.228 287.537 133.535C290.578 126.593 290.567 118.789 287.903 110.52L289.04 109.307C292.162 118.421 292.12 126.742 288.907 134.072C285.385 142.106 278.28 148.437 267.787 152.888C257.736 157.153 245.003 159.526 229.939 159.936C228.365 159.978 226.775 160 225.17 160C198.622 160 167.786 154.151 136.762 143.272C132.832 141.896 128.902 140.438 124.975 138.9C88.1724 124.493 56.2254 104.864 35.0197 83.628C26.6813 75.2775 20.3641 67.0383 16.1778 59.0586C15.1686 57.1384 14.2848 55.2355 13.5265 53.3499C9.43963 43.1905 9.15201 33.9653 12.6741 25.9287V25.9287Z" fill="url(#paint13_radial_6_544)"/>
<path d="M288.907 25.9287C285.387 17.8946 278.28 11.5632 267.79 7.11245C257.739 2.84704 245.002 0.474619 229.939 0.0643877C199.059 -0.778316 161.78 6.68987 124.977 21.0998C122.331 22.1353 119.709 23.198 117.115 24.2878L120.783 24.2977C122.357 23.6527 123.945 23.0176 125.545 22.3923C200.946 -7.12454 273.618 -5.29827 287.539 26.465C291.571 35.663 290.24 46.376 284.482 57.6747C270.365 85.3974 229.609 116.637 176.038 137.608C170.856 139.637 165.668 141.525 160.488 143.272C129.062 153.879 98.022 159.254 71.6862 158.535C56.8161 158.129 44.2731 155.799 34.3998 151.61C24.2625 147.31 17.4144 141.228 14.044 133.535C11.0031 126.593 11.0135 118.789 13.6779 110.52L12.5405 109.307C9.41852 118.421 9.46036 126.742 12.6739 134.072C16.196 142.106 23.3002 148.437 33.7932 152.888C43.8443 157.153 56.5782 159.526 71.6417 159.936C73.2158 159.978 74.8056 160 76.4111 160C102.959 160 133.794 154.151 164.818 143.272C168.748 141.896 172.678 140.438 176.606 138.9C213.408 124.493 245.355 104.864 266.561 83.628C274.899 75.2775 281.217 67.0383 285.403 59.0586C286.412 57.1384 287.296 55.2355 288.054 53.3499C292.141 43.1905 292.429 33.9653 288.907 25.9287V25.9287Z" fill="url(#paint14_linear_6_544)"/>
<path d="M288.907 25.9287C285.387 17.8946 278.28 11.5632 267.79 7.11245C257.739 2.84704 245.002 0.474619 229.939 0.0643877C199.059 -0.778316 161.78 6.68987 124.977 21.0998C122.331 22.1353 119.709 23.198 117.115 24.2878L120.783 24.2977C122.357 23.6527 123.945 23.0176 125.545 22.3923C200.946 -7.12454 273.618 -5.29827 287.539 26.465C291.571 35.663 290.24 46.376 284.482 57.6747C270.365 85.3974 229.609 116.637 176.038 137.608C170.856 139.637 165.668 141.525 160.488 143.272C129.062 153.879 98.022 159.254 71.6862 158.535C56.8161 158.129 44.2731 155.799 34.3998 151.61C24.2625 147.31 17.4144 141.228 14.044 133.535C11.0031 126.593 11.0135 118.789 13.6779 110.52L12.5405 109.307C9.41852 118.421 9.46036 126.742 12.6739 134.072C16.196 142.106 23.3002 148.437 33.7932 152.888C43.8443 157.153 56.5782 159.526 71.6417 159.936C73.2158 159.978 74.8056 160 76.4111 160C102.959 160 133.794 154.151 164.818 143.272C168.748 141.896 172.678 140.438 176.606 138.9C213.408 124.493 245.355 104.864 266.561 83.628C274.899 75.2775 281.217 67.0383 285.403 59.0586C286.412 57.1384 287.296 55.2355 288.054 53.3499C292.141 43.1905 292.429 33.9653 288.907 25.9287V25.9287Z" fill="url(#paint15_radial_6_544)"/>
<path d="M288.907 25.9287C285.387 17.8946 278.28 11.5632 267.79 7.11245C257.739 2.84704 245.002 0.474619 229.939 0.0643877C199.059 -0.778316 161.78 6.68987 124.977 21.0998C122.331 22.1353 119.709 23.198 117.115 24.2878L120.783 24.2977C122.357 23.6527 123.945 23.0176 125.545 22.3923C200.946 -7.12454 273.618 -5.29827 287.539 26.465C291.571 35.663 290.24 46.376 284.482 57.6747C270.365 85.3974 229.609 116.637 176.038 137.608C170.856 139.637 165.668 141.525 160.488 143.272C129.062 153.879 98.022 159.254 71.6862 158.535C56.8161 158.129 44.2731 155.799 34.3998 151.61C24.2625 147.31 17.4144 141.228 14.044 133.535C11.0031 126.593 11.0135 118.789 13.6779 110.52L12.5405 109.307C9.41852 118.421 9.46036 126.742 12.6739 134.072C16.196 142.106 23.3002 148.437 33.7932 152.888C43.8443 157.153 56.5782 159.526 71.6417 159.936C73.2158 159.978 74.8056 160 76.4111 160C102.959 160 133.794 154.151 164.818 143.272C168.748 141.896 172.678 140.438 176.606 138.9C213.408 124.493 245.355 104.864 266.561 83.628C274.899 75.2775 281.217 67.0383 285.403 59.0586C286.412 57.1384 287.296 55.2355 288.054 53.3499C292.141 43.1905 292.429 33.9653 288.907 25.9287V25.9287Z" fill="url(#paint16_radial_6_544)"/>
</g>
<defs>
<linearGradient id="paint0_linear_6_544" x1="150.74" y1="74.7559" x2="150.74" y2="135.549" gradientUnits="userSpaceOnUse">
<stop stop-color="#D9D9D9"/>
<stop offset="1" stop-color="#D9D9D9" stop-opacity="0"/>
</linearGradient>
<linearGradient id="paint1_linear_6_544" x1="0" y1="80.0001" x2="301.583" y2="80.0001" gradientUnits="userSpaceOnUse">
<stop stop-color="#996DFF"/>
<stop offset="0.5" stop-color="#35E8B3"/>
<stop offset="1" stop-color="#E2D45C"/>
</linearGradient>
<linearGradient id="paint2_linear_6_544" x1="150.79" y1="91.9114" x2="150.79" y2="136.167" gradientUnits="userSpaceOnUse">
<stop stop-color="#28203E"/>
<stop offset="1" stop-color="#121214" stop-opacity="0"/>
</linearGradient>
<linearGradient id="paint3_linear_6_544" x1="30.4622" y1="61.0153" x2="30.4622" y2="78.4551" gradientUnits="userSpaceOnUse">
<stop stop-color="#A9A9AD"/>
<stop offset="1" stop-color="#A9A9AD" stop-opacity="0"/>
</linearGradient>
<linearGradient id="paint4_linear_6_544" x1="65.5993" y1="61.015" x2="65.5993" y2="78.4548" gradientUnits="userSpaceOnUse">
<stop stop-color="#A9A9AD"/>
<stop offset="1" stop-color="#A9A9AD" stop-opacity="0"/>
</linearGradient>
<linearGradient id="paint5_linear_6_544" x1="106.013" y1="61.0151" x2="106.013" y2="78.4549" gradientUnits="userSpaceOnUse">
<stop stop-color="#A9A9AD"/>
<stop offset="1" stop-color="#A9A9AD" stop-opacity="0"/>
</linearGradient>
<linearGradient id="paint6_linear_6_544" x1="148.29" y1="61.0153" x2="148.29" y2="78.4551" gradientUnits="userSpaceOnUse">
<stop stop-color="#A9A9AD"/>
<stop offset="1" stop-color="#A9A9AD" stop-opacity="0"/>
</linearGradient>
<linearGradient id="paint7_linear_6_544" x1="189.776" y1="61.0151" x2="189.776" y2="78.4549" gradientUnits="userSpaceOnUse">
<stop stop-color="#A9A9AD"/>
<stop offset="1" stop-color="#A9A9AD" stop-opacity="0"/>
</linearGradient>
<linearGradient id="paint8_linear_6_544" x1="224.937" y1="61.015" x2="224.937" y2="78.4548" gradientUnits="userSpaceOnUse">
<stop stop-color="#A9A9AD"/>
<stop offset="1" stop-color="#A9A9AD" stop-opacity="0"/>
</linearGradient>
<linearGradient id="paint9_linear_6_544" x1="261.351" y1="61.0154" x2="261.351" y2="78.4552" gradientUnits="userSpaceOnUse">
<stop stop-color="#A9A9AD"/>
<stop offset="1" stop-color="#A9A9AD" stop-opacity="0"/>
</linearGradient>
<linearGradient id="paint10_linear_6_544" x1="273.634" y1="114.544" x2="69.9455" y2="115.65" gradientUnits="userSpaceOnUse">
<stop stop-color="#996DFF"/>
<stop offset="0.5" stop-color="#35E8B3"/>
<stop offset="1" stop-color="#E2D45C"/>
</linearGradient>
<radialGradient id="paint11_radial_6_544" cx="0" cy="0" r="1" gradientUnits="userSpaceOnUse" gradientTransform="translate(148.93 146.212) rotate(14.9359) scale(136.384 215.749)">
<stop stop-color="#171226"/>
<stop offset="1" stop-color="#171226" stop-opacity="0"/>
</radialGradient>
<radialGradient id="paint12_radial_6_544" cx="0" cy="0" r="1" gradientUnits="userSpaceOnUse" gradientTransform="translate(184.039 25.0001) rotate(-158.175) scale(30.5661 48.7645)">
<stop stop-color="#261945"/>
<stop offset="1" stop-color="#261945" stop-opacity="0"/>
</radialGradient>
<radialGradient id="paint13_radial_6_544" cx="0" cy="0" r="1" gradientUnits="userSpaceOnUse" gradientTransform="translate(289.364 107.273) rotate(75.9884) scale(33.1062 57.8035)">
<stop stop-color="#191326"/>
<stop offset="1" stop-color="#191326" stop-opacity="0"/>
</radialGradient>
<linearGradient id="paint14_linear_6_544" x1="158.549" y1="17.7274" x2="199.811" y2="128.409" gradientUnits="userSpaceOnUse">
<stop stop-color="#996DFF"/>
<stop offset="0.5" stop-color="#35E8B3"/>
<stop offset="1" stop-color="#E2D45C"/>
</linearGradient>
<radialGradient id="paint15_radial_6_544" cx="0" cy="0" r="1" gradientUnits="userSpaceOnUse" gradientTransform="translate(114.303 27.4244) rotate(-18.3634) scale(69.2545 109.981)">
<stop stop-color="#171225"/>
<stop offset="1" stop-color="#171225" stop-opacity="0"/>
</radialGradient>
<radialGradient id="paint16_radial_6_544" cx="0" cy="0" r="1" gradientUnits="userSpaceOnUse" gradientTransform="translate(12.6647 108.788) rotate(66.3034) scale(44.6759 77.1419)">
<stop stop-color="#191327"/>
<stop offset="1" stop-color="#191327" stop-opacity="0"/>
</radialGradient>
<clipPath id="clip0_6_544">
<rect width="301.583" height="160" fill="white"/>
</clipPath>
</defs>
</svg>
